<svg aria-hidden="true" style="position: absolute;width: 0;height: 0" xmlns="http://www.w3.org/2000/svg" overflow="hidden">
<defs>

<symbol id="back" viewBox="0 0 32 32">
<path fill="var(--color1, #fff)" d="M9.737 16L24.188 1.547a.9.9 0 000-1.28.9.9 0 00-1.28 0L7.813 15.363a.902.902 0 000 1.28l15.096 15.089a.882.882 0 001.274 0 .9.9 0 000-1.28L9.738 16.001z"/></symbol>

<symbol id="clock" viewBox="0 0 32 32">
<path d="M16 0c-8.837 0-16 7.163-16 16s7.163 16 16 16c8.837 0 16-7.163 16-16v0c-0.011-8.832-7.168-15.989-15.999-16h-0.001zM16.687 30.594v-2.816c0-0.379-0.308-0.687-0.687-0.687s-0.687 0.308-0.687 0.687v0 2.816c-7.526-0.371-13.535-6.381-13.904-13.873l-0.001-0.034h2.814c0.379 0 0.687-0.308 0.687-0.687s-0.308-0.687-0.687-0.687v0h-2.814c0.371-7.526 6.379-13.534 13.871-13.904l0.034-0.001v2.814c0 0.379 0.308 0.687 0.687 0.687s0.687-0.308 0.687-0.687v0-2.814c7.526 0.37 13.536 6.379 13.905 13.871l0.001 0.034h-2.816c-0.379 0-0.687 0.308-0.687 0.687s0.308 0.687 0.687 0.687v0h2.822c-0.37 7.529-6.383 13.54-13.879 13.905l-0.034 0.001z"></path>
<path d="M23.241 22.383l-6.554-6.664v-6.929c0-0.379-0.308-0.687-0.687-0.687s-0.687 0.308-0.687 0.687v0 7.209c0 0.181 0.073 0.352 0.2 0.48l6.748 6.865c0.122 0.113 0.286 0.182 0.466 0.182 0.379 0 0.687-0.308 0.687-0.687 0-0.175-0.065-0.335-0.173-0.456l0.001 0.001z"></path>
</symbol>

<symbol id="geoposition" viewBox="0 0 32 32">
<path d="M15.977 0C9.503.007 4.257 5.253 4.25 11.726v.001c0 2.972 1.871 7.168 5.564 12.476a83.664 83.664 0 005.548 7.108l-.085-.1.7.789.7-.791c.113-.124 2.767-3.127 5.464-7.006 3.691-5.308 5.564-9.506 5.564-12.476C27.697 5.253 22.452.007 15.979 0h-.001zm4.64 23.119a84.61 84.61 0 01-4.743 6.159l.103-.124a83.773 83.773 0 01-4.448-5.753l-.179-.266c-3.422-4.917-5.229-8.862-5.229-11.407.006-5.441 4.415-9.85 9.855-9.856h.001c5.442.005 9.851 4.415 9.858 9.855v.001c0 2.541-1.805 6.483-5.218 11.392z"/>
<path d="M15.977 4.335a6.929 6.929 0 00-6.921 6.921 6.929 6.929 0 006.921 6.921 6.929 6.929 0 006.921-6.921 6.929 6.929 0 00-6.921-6.921zm0 11.972a5.055 5.055 0 01-5.05-5.05 5.055 5.055 0 015.05-5.05 5.056 5.056 0 015.052 5.05 5.056 5.056 0 01-5.052 5.05z"/></symbol>

<symbol id="logo" viewBox="0 0 32 32">
<path fill="var(--color3, #fffaf7)" d="M26.067 3.56c-.018-.019-.056-.038-.074-.074.018.037.056.056.074.074zm-.352-.278c.093.074.185.148.278.204-.093-.056-.185-.13-.278-.204-.018-.018-.056-.037-.074-.056.018.019.056.038.074.056zm-.149-.112zm-.204-.148l.038.037c0-.018-.018-.018-.038-.037zm-.018-.019zm-.334-.222c-.037-.018-.056-.037-.093-.056a.435.435 0 01.093.056zM18.632.222c-.055-.018-.129-.018-.184-.037-.038 0-.056 0-.094-.018a.17.17 0 01.093.018c.056 0 .13.018.186.037zm4.135 1.28c-.167-.074-.315-.148-.464-.204.168.056.315.13.464.204zm1.854 1.02zM20.858.742c-.037-.018-.074-.018-.112-.037-.036-.019-.074-.019-.11-.038.037.018.074.018.111.038a.159.159 0 00.111.037zm-.612-.168c-.018-.018-.037-.018-.056-.018h.001c.018 0 .037 0 .056.018zm1.946.668a.292.292 0 01.112.056c-.038-.019-.056-.038-.112-.056zm2.022 1.02l.074.056c.056.037.112.056.149.093-.056-.038-.093-.056-.149-.093l-.074-.056c-.018 0-.018-.018-.037-.018.018.018.018.018.038.018zm1.983 1.409c-.037-.038-.074-.056-.111-.093.038.037.074.056.112.093zM23.99 2.132l-.018-.018c-.018 0-.018-.018-.037-.018.018 0 .018.018.037.018l.018.018zm-1.186-.612l.13.074c.056.018.112.056.149.074-.056-.018-.112-.056-.149-.074l-.13-.074s0-.018 0 0c0-.018 0 0 0 0zm-1.186-.5c.112.037.241.092.39.148.018 0 .018 0 .037.018-.018 0-.018 0-.037-.018-.149-.056-.278-.111-.39-.148zM.167 13.682c0-.018 0-.056.018-.074-.018.019-.018.038-.018.074zm-.074.538v-.056c.018.019 0 .038 0 .056zm-.056.612c0 .056-.018.13-.018.186.018-.074.018-.13.018-.186zm8.325 6.544c0 .019.018.038.018.038-.018 0-.018-.018-.018-.037zM16.594.018c.352.018.722.037 1.075.074a9.876 9.876 0 00-1.075-.074zm2.762.334c.111.018.204.038.296.074-.092-.037-.204-.056-.296-.074zm3.764 1.317c.24.111.463.241.686.37a8.172 8.172 0 00-.686-.37zm3.299 2.187c-.037-.018-.056-.056-.093-.074.038.018.074.056.093.074zM10.772 6.971a13.236 13.236 0 014.931-3.338c.575-.222 1.15-.408 1.743-.538-.594.149-1.168.315-1.743.538a13.238 13.238 0 00-4.924 3.329l-.008.008zm2.836 20.375a13.308 13.308 0 01-3.995-3.721l-.028-.042a12.25 12.25 0 01-.986-1.669l-.033-.074c.296.594.63 1.186 1.019 1.742a13.677 13.677 0 004.024 3.764zM3.43 24.214a11.552 11.552 0 000 0zM26.772 4.171a.311.311 0 00.092.074c-.018-.018-.055-.037-.092-.074zm.444.408l-.055-.056-.074-.074.074.074c0 .018.038.037.056.056zm-.24-.222c-.019-.018-.056-.037-.074-.074.018.019.037.056.074.074z"/>
<path fill="var(--color2, #005fa3)" d="M.186 13.552v.038c0 .018 0 .056-.018.074v.166c0 .056-.019.112-.019.168s-.018.092-.018.147v.056c0 .056-.018.112-.018.167 0 .037 0 .093-.018.13v.297c0 .056-.018.13-.018.185v.909c-.074.055-.074.055-.074.074v.204a11.393 11.393 0 003.43 8.027 11.454 11.454 0 008.081 3.321c.518 0 1.027-.034 1.527-.101l-.059.006c.222-.018.426-.056.648-.093a13.307 13.307 0 01-3.994-3.722l-.028-.042c-.354-.5-.694-1.071-.987-1.668l-.033-.074c-.074-.13-.13-.278-.186-.408 0-.018-.018-.037-.018-.037-.715-1.581-1.131-3.427-1.131-5.371v-.006c0-2.726.816-5.339 2.374-7.583.352-.518.742-1.001 1.168-1.446a13.236 13.236 0 014.931-3.338c.575-.222 1.15-.408 1.743-.538.894-.224 1.92-.352 2.976-.352h.067-.003c2.41 0 4.728.649 6.749 1.835l-.148-.148c-.018-.018-.056-.038-.074-.074-.018-.018-.056-.037-.074-.074l-.018-.018c-.037-.018-.056-.056-.093-.074l-.037-.038-.018-.018a.829.829 0 00-.127-.11l-.003-.002a.779.779 0 01-.13-.11c-.018-.018-.037-.018-.037-.037-.037-.019-.056-.056-.093-.074l-.13-.13c-.037-.038-.074-.056-.112-.093-.018-.018-.055-.038-.074-.074a11.454 11.454 0 00-.232-.184l-.027-.02c-.018-.018-.056-.037-.074-.056l-.037-.018-.018-.018h-.019l-.056-.037-.018-.018-.074-.056-.018-.018-.038-.037-.018-.019c-.018-.018-.056-.037-.074-.055l-.019-.018c-.074-.056-.13-.093-.204-.149-.037-.018-.056-.037-.092-.056l-.019-.018c-.037-.038-.093-.056-.13-.093-.018 0-.018-.018-.037-.018-.037-.019-.074-.038-.093-.056-.056-.037-.093-.056-.149-.093s-.092-.056-.148-.093l-.074-.056c-.018 0-.018-.018-.037-.018s-.037-.019-.056-.019c-.018 0-.018-.018-.037-.018l-.111-.056-.018-.018c-.018 0-.018-.019-.037-.019a.366.366 0 01-.093-.056h-.018c-.223-.129-.464-.24-.686-.37h-.018c-.056-.018-.112-.056-.149-.074l-.352-.149h-.018c-.167-.074-.315-.148-.464-.204-.037-.018-.074-.037-.11-.037h-.038l-.056-.018c-.018 0-.037-.018-.074-.018-.018 0-.018 0-.037-.018-.149-.056-.278-.112-.39-.149l-.074-.018h-.018l-.074-.018c-.204-.074-.389-.149-.611-.204h-.018c-.038-.018-.074-.018-.112-.037s-.074-.019-.111-.038c-.018 0-.056-.018-.074-.018-.093-.018-.167-.056-.26-.074h-.037c0-.111-.018-.111-.037-.111h-.038c-.166-.037-.334-.093-.519-.13-.093-.018-.204-.037-.296-.074-.168-.037-.352-.074-.52-.111-.055-.018-.13-.018-.185-.037s-.13-.018-.186-.037c-.037 0-.056 0-.093-.019-.037 0-.074-.018-.111-.018-.186-.018-.37-.056-.556-.074-.352-.038-.723-.056-1.075-.074-.204.018-.408.018-.612.018-.334 0-.686.018-1.02.037h-.111c-.37.019-.742.056-1.112.112-.074.018-.13.018-.204.037L.19 13.554z"/>
<path fill="var(--color4, #222)" d="M31.814 18.429v-.018c0-.018 0-.038.018-.074v-.018c0-.037.019-.056.019-.093v-.055l.018-.093.018-.074c0-.074.018-.13.018-.186s.018-.111.018-.166c0-.056.019-.093.019-.13v-.166c0-.038 0-.074.018-.13v-.018c0-.056.018-.111.018-.185 0-.056 0-.13.018-.186v-1.002a11.364 11.364 0 00-3.428-8.025l-.002-.002a11.453 11.453 0 00-8.079-3.319h-.024.001c-.704 0-1.409.056-2.076.186 1.61.98 2.952 2.239 3.995 3.722l.028.042a13.127 13.127 0 012.373 7.582c0 2.726-.816 5.34-2.373 7.583a13.315 13.315 0 01-6.01 4.752l-.09.031c-1.408.563-3.04.89-4.748.89h-.038.002a13.3 13.3 0 01-6.748-1.835h.018l.038.037.037.038.074.074c.037.038.093.093.148.13.037.037.074.056.093.092.056.056.112.112.186.167l.111.112.018.018.111.093.018.018c.038.018.056.056.093.074l.037.037c.019.018.056.056.093.074h.038c.018.018.056.037.074.056l.26.204c.018.018.037.037.056.037a.256.256 0 00.072.055l.001.001c.018.018.018.018.037.018l.019.018c.037.018.074.056.111.074l.037.019c.018.018.037.018.056.037s.055.037.074.056l.038.018c.074.056.13.092.203.148.038.018.056.037.093.056l.019.018.074.056.074.055c.037.018.074.056.13.074.037.018.093.055.13.074h.149l.185.167c.019.018.056.037.093.056a.752.752 0 00.167.092c.037.018.093.056.13.074.241.13.482.259.723.37.056.018.111.056.167.074 0 0 .018 0 .018.018.056.018.093.056.148.074.148.074.296.148.464.204l.111.056c.018 0 .018.018.037.018.056.018.093.037.148.056.13.055.26.092.39.147.037.019.093.038.13.056.204.074.408.148.594.204.037.018.074.018.111.037.056.019.111.038.186.056l.056.018c.074.018.147.037.203.056.037.018.074.018.112.037.444.111.889.222 1.334.296.056.019.111.019.185.038s.13.018.186.037c.056.018.13.018.186.018.742.112 1.483.149 2.243.149.742 0 1.502-.056 2.243-.148h.019c.055 0 .111-.019.185-.019l13.368-13.367.092.074z"/></symbol>

<symbol id="mail" viewBox="0 0 32 32">
<path d="M27.285 4.174H3.801A3.804 3.804 0 000 7.975v16.05a3.804 3.804 0 003.801 3.801h23.478a3.804 3.804 0 003.801-3.801V7.98v-.007a3.8 3.8 0 00-3.795-3.8zm2.065 19.851a2.066 2.066 0 01-2.063 2.065H3.802a2.067 2.067 0 01-2.065-2.065V7.98c0-1.138.927-2.063 2.065-2.063H27.28c1.138 0 2.063.925 2.063 2.063v16.045h.007z"/>
<path d="M19.601 15.801l7.601-6.817a.871.871 0 00.065-1.228l.001.001a.87.87 0 00-1.229-.064l.001-.001L15.557 17.1l-2.045-1.825c-.007-.007-.014-.014-.014-.019a1.418 1.418 0 00-.137-.12l-.003-.002-8.32-7.446a.862.862 0 00-.58-.222.863.863 0 00-.648.291l-.001.001a.866.866 0 00.07 1.228l.001.001 7.691 6.874-7.659 7.171a.87.87 0 00.595 1.508c.23 0 .44-.089.595-.235l7.775-7.272 2.109 1.884a.864.864 0 001.158-.008l-.001.001 2.168-1.942 7.73 7.345a.869.869 0 001.197-1.26l-7.634-7.249z"/></symbol>

<symbol id="phone" viewBox="0 0 18 32">
<path d="M15.71 0h-13.643c-1.138 0-2.068 0.93-2.068 2.068v26.466c0 1.138 0.93 2.068 2.068 2.068h13.643c1.138 0 2.068-0.928 2.068-2.066v-26.469c0-1.136-0.93-2.066-2.068-2.066zM6.706 1.49h4.366c0.138 0 0.251 0.112 0.251 0.251s-0.112 0.251-0.251 0.251v0h-4.366c-0.138 0-0.251-0.112-0.251-0.251s0.112-0.251 0.251-0.251v0zM8.889 29.57c-0.571 0-1.034-0.463-1.034-1.034s0.463-1.034 1.034-1.034v0c0.571 0 1.034 0.463 1.034 1.034s-0.463 1.034-1.034 1.034v0zM16.338 26.779h-14.898v-23.504h14.898v23.502z"></path>
</symbol>

<symbol id="icon-menu_40px" viewBox="0 0 32 32">
<path d="M6.4 11.734v-2.134h19.2v2.134h-19.2zM6.4 17.066h19.2v-2.133h-19.2v2.133zM6.4 22.4h19.2v-2.134h-19.2v2.134z"></path>
</symbol>

<symbol id="icon-close_40px" viewBox="0 0 32 32">
<path d="M23.734 10.304l-1.504-1.504-5.963 5.962-5.962-5.962-1.504 1.504 5.962 5.962-5.962 5.963 1.504 1.504 5.962-5.963 5.963 5.963 1.504-1.504-5.963-5.963 5.963-5.962z"></path>
</symbol>

</defs></svg>